<svg width="15" height="15" viewBox="0 0 15 15" fill="none" xmlns="http://www.w3.org/2000/svg">
<g clip-path="url(#clip0_17_3361)">
<path d="M13.9412 5.17099C13.2031 3.45016 11.9488 2.19864 10.2136 1.45859C9.34633 1.08871 8.43773 0.89978 7.4885 0.89978C6.53942 0.89978 5.63752 1.08693 4.77121 1.45859C3.05038 2.19668 1.79054 3.4474 1.05112 5.17099C0.680605 6.03451 0.5 6.93918 0.5 7.88825C0.5 8.8375 0.680605 9.74968 1.05112 10.6134C1.79054 12.337 3.05054 13.5952 4.77121 14.3335C5.63768 14.7051 6.5394 14.8921 7.4885 14.8921C8.43759 14.8921 9.34633 14.7032 10.2135 14.3335C11.9487 13.5934 13.2029 12.334 13.9412 10.6134C14.3129 9.74691 14.5 8.8375 14.5 7.88825C14.5 6.93918 14.313 6.03744 13.9412 5.17099ZM12.8237 10.9808C12.2742 11.9232 11.5215 12.6708 10.5733 13.2235C9.63097 13.773 8.59843 14.0501 7.48865 14.0501C6.65438 14.0501 5.85829 13.8895 5.10042 13.5602C4.34257 13.2312 3.68822 12.7986 3.14086 12.2514C2.59348 11.704 2.15781 11.0433 1.83204 10.2842C1.50722 9.52778 1.34981 8.72271 1.34981 7.88828C1.34981 6.77833 1.62252 5.75104 2.16893 4.81128C2.71728 3.86807 3.47024 3.11967 4.41165 2.56852C5.3529 2.0174 6.37874 1.74175 7.4885 1.74175C8.59843 1.74175 9.63079 2.01903 10.5732 2.56852C11.5213 3.1213 12.2725 3.86968 12.8236 4.81125C13.3747 5.75266 13.6502 6.77833 13.6502 7.88825C13.6502 8.99821 13.3765 10.0325 12.8237 10.9808Z" fill="white"/>
<path d="M7.93248 7.82608V3.86103C7.93248 3.62377 7.72575 3.43239 7.48847 3.43239C7.26654 3.43239 7.06747 3.62377 7.06747 3.86103V7.88729C7.06747 7.89497 7.08283 7.92568 7.08283 7.94855C7.06747 8.08635 7.10586 8.20117 7.19764 8.29311L9.48644 10.5817C9.63959 10.7349 9.92275 10.7349 10.0758 10.5817C10.2518 10.4057 10.2402 10.1503 10.0758 9.9847L7.93248 7.82608Z" fill="white"/>
</g>
<defs>
<clipPath id="clip0_17_3361">
<rect width="14" height="14" fill="white" transform="translate(0.5 0.895004)"/>
</clipPath>
</defs>
</svg>
