<svg width="15" height="15" viewBox="0 0 15 15" fill="none" xmlns="http://www.w3.org/2000/svg">
    <g clip-path="url(#clip0_1_1332)">
        <path
            d="M13.2695 1.97298H1.73047C1.05284 1.97298 0.5 2.52521 0.5 3.20345V11.4066C0.5 12.0825 1.05037 12.637 1.73047 12.637H13.2695C13.9455 12.637 14.5 12.0867 14.5 11.4066V3.20345C14.5 2.52751 13.9496 1.97298 13.2695 1.97298ZM13.0996 2.79328L7.52609 8.36685L1.90435 2.79328H13.0996ZM1.32031 11.2367V3.3694L5.27091 7.2861L1.32031 11.2367ZM1.90035 11.8167L5.85344 7.86364L7.2386 9.2369C7.39893 9.39587 7.65769 9.39536 7.81738 9.23564L9.16797 7.88505L13.0996 11.8167H1.90035ZM13.6797 11.2367L9.74801 7.30501L13.6797 3.3733V11.2367Z"
             />
    </g>
    <defs>
        <clipPath id="clip0_1_1332">
            <rect width="14" height="14"  transform="translate(0.5 0.305008)" />
        </clipPath>
    </defs>
</svg>