<svg width="15" height="15" viewBox="0 0 15 15" fill="none" xmlns="http://www.w3.org/2000/svg">
    <g clip-path="url(#clip0_1_1370)">
        <mask id="mask0_1_1370" style="mask-type:luminance" maskUnits="userSpaceOnUse" x="0" y="0"
            width="15" height="15">
            <path d="M14.5 0.305008H0.5V14.305H14.5V0.305008Z"  />
        </mask>
        <g mask="url(#mask0_1_1370)">
            <path
                d="M11.5644 8.97749C11.2778 8.67906 10.9321 8.51949 10.5657 8.51949C10.2022 8.51949 9.85355 8.6761 9.55512 8.97454L8.6214 9.90529C8.54458 9.86392 8.46775 9.82552 8.39388 9.7871C8.28751 9.73392 8.18705 9.68369 8.10136 9.6305C7.22673 9.075 6.43189 8.35107 5.66956 7.4144C5.30022 6.94755 5.05201 6.55456 4.87177 6.15566C5.11406 5.93405 5.33862 5.70358 5.55728 5.48197C5.64001 5.39923 5.72275 5.31354 5.80548 5.23081C6.42599 4.61029 6.42599 3.8066 5.80548 3.18609L4.99882 2.37943C4.90722 2.28783 4.81267 2.19328 4.72402 2.09873C4.54674 1.91553 4.36058 1.72642 4.16853 1.54914C3.88191 1.26547 3.53916 1.11478 3.17867 1.11478C2.81818 1.11478 2.46952 1.26547 2.17404 1.54914C2.17109 1.55209 2.17109 1.55209 2.16812 1.55504L1.1635 2.56853C0.785283 2.94674 0.569582 3.40769 0.522306 3.94252C0.451391 4.80531 0.705503 5.60902 0.900519 6.13498C1.3792 7.42622 2.09426 8.62292 3.16093 9.90529C4.45514 11.4506 6.01231 12.671 7.79111 13.5308C8.4707 13.8529 9.37783 14.2341 10.3913 14.2991C10.4534 14.3021 10.5184 14.305 10.5775 14.305C11.26 14.305 11.8333 14.0598 12.2824 13.5722C12.2853 13.5663 12.2913 13.5634 12.2942 13.5574C12.4478 13.3713 12.6252 13.2029 12.8113 13.0226C12.9383 12.9015 13.0684 12.7745 13.1954 12.6415C13.4879 12.3371 13.6416 11.9825 13.6416 11.6191C13.6416 11.2527 13.485 10.9011 13.1866 10.6056L11.5644 8.97749ZM12.6223 12.0889C12.6192 12.0889 12.6192 12.0918 12.6223 12.0889C12.507 12.2129 12.3888 12.3253 12.2618 12.4494C12.0696 12.6326 11.8746 12.8246 11.6914 13.0403C11.393 13.3594 11.0414 13.5102 10.5804 13.5102C10.5361 13.5102 10.4888 13.5102 10.4445 13.5072C9.56694 13.451 8.75141 13.1082 8.13977 12.8158C6.46736 12.0062 4.99882 10.8567 3.77849 9.40002C2.77091 8.1856 2.09721 7.06278 1.65104 5.85723C1.37624 5.12148 1.27578 4.54825 1.3201 4.00752C1.34965 3.66181 1.48261 3.37519 1.72786 3.12995L2.73545 2.12237C2.88023 1.98644 3.03388 1.91258 3.18458 1.91258C3.37072 1.91258 3.52142 2.02486 3.61598 2.1194C3.61893 2.12237 3.62188 2.12532 3.62485 2.12827C3.80509 2.29669 3.97646 2.47102 4.15671 2.65718C4.2483 2.75174 4.34286 2.84628 4.43741 2.94379L5.24408 3.75045C5.55728 4.06366 5.55728 4.35323 5.24408 4.66645C5.15838 4.75213 5.07564 4.83782 4.98995 4.92056C4.74176 5.17467 4.50537 5.41105 4.2483 5.64152C4.2424 5.64744 4.23648 5.65039 4.23353 5.65629C3.97942 5.91042 4.02669 6.15861 4.07988 6.32703C4.08283 6.3359 4.08579 6.34477 4.08875 6.35363C4.29854 6.86186 4.59401 7.34053 5.04314 7.91081L5.0461 7.91376C5.86163 8.9184 6.72147 9.70142 7.66996 10.3012C7.79111 10.3781 7.91521 10.4401 8.0334 10.4992C8.13977 10.5524 8.24023 10.6026 8.32592 10.6558C8.33774 10.6617 8.34956 10.6706 8.36137 10.6765C8.46185 10.7267 8.55639 10.7504 8.6539 10.7504C8.89915 10.7504 9.0528 10.5967 9.10304 10.5465L10.1136 9.53595C10.214 9.43548 10.3736 9.31433 10.5597 9.31433C10.7429 9.31433 10.8936 9.42957 10.9852 9.53004C10.9882 9.53299 10.9882 9.53299 10.9911 9.53595L12.6192 11.164C12.9236 11.4654 12.9236 11.7757 12.6223 12.0889Z"
                 />
            <path
                d="M8.06586 3.6352C8.84001 3.76522 9.54326 4.13161 10.1047 4.69302C10.6661 5.25443 11.0295 5.95767 11.1625 6.73183C11.195 6.92685 11.3634 7.06276 11.5555 7.06276C11.5791 7.06276 11.5998 7.05981 11.6234 7.05685C11.8421 7.02139 11.9869 6.81456 11.9514 6.59591C11.7918 5.65924 11.3486 4.8053 10.672 4.12866C9.99534 3.452 9.1414 3.00878 8.20474 2.84923C7.98608 2.81376 7.7822 2.95855 7.74379 3.17425C7.70537 3.38996 7.8472 3.59975 8.06586 3.6352Z"
                 />
            <path
                d="M14.4837 6.4807C14.2207 4.9383 13.4939 3.53477 12.3769 2.41785C11.26 1.30095 9.85651 0.574066 8.3141 0.311089C8.0984 0.272677 7.89452 0.420417 7.85611 0.636117C7.82065 0.854772 7.96543 1.05865 8.18409 1.09706C9.56103 1.33049 10.8168 1.9835 11.8155 2.97926C12.8143 3.97799 13.4644 5.23378 13.6977 6.61071C13.7302 6.80573 13.8987 6.94165 14.0907 6.94165C14.1144 6.94165 14.1351 6.9387 14.1586 6.93575C14.3744 6.90324 14.5222 6.6964 14.4837 6.4807Z"
                 />
        </g>
    </g>
    <defs>
        <clipPath id="clip0_1_1370">
            <rect width="14" height="14"  transform="translate(0.5 0.305008)" />
        </clipPath>
    </defs>
</svg>