<svg width="13" height="15" viewBox="0 0 13 15" fill="none" xmlns="http://www.w3.org/2000/svg">
    <g clip-path="url(#clip0_1_1319)">
        <path
            d="M6.33043 0.305008C3.23693 0.305008 0.718689 2.82325 0.718689 5.91674C0.718689 6.26895 0.750974 6.62408 0.818479 6.97042C0.821414 6.99096 0.833154 7.0526 0.856634 7.15825C0.94175 7.53687 1.06796 7.90962 1.23232 8.26475C1.83693 9.68824 3.16649 11.8748 6.08389 14.2169C6.15726 14.2756 6.24532 14.305 6.33337 14.305C6.42141 14.305 6.50946 14.2756 6.58284 14.2169C9.49731 11.8748 10.8298 9.68824 11.4344 8.26475C11.5988 7.90962 11.725 7.53981 11.8101 7.15825C11.8336 7.0526 11.8453 6.99096 11.8482 6.97042C11.9128 6.62408 11.948 6.26895 11.948 5.91674C11.9422 2.82325 9.42392 0.305008 6.33043 0.305008ZM11.0617 6.83247C11.0617 6.83834 11.0587 6.84421 11.0587 6.85008C11.0558 6.86475 11.047 6.90878 11.0323 6.97629C11.0323 6.97922 11.0323 6.97922 11.0323 6.98216C10.9589 7.31088 10.8503 7.6308 10.7065 7.93897C10.7036 7.9419 10.7036 7.94777 10.7007 7.95071C10.1518 9.25091 8.94846 11.235 6.33043 13.398C3.7124 11.235 2.50905 9.25091 1.9602 7.95071C1.95726 7.94777 1.95726 7.9419 1.95433 7.93897C1.81344 7.63373 1.70485 7.31088 1.62854 6.98216C1.62854 6.97922 1.62854 6.97922 1.62854 6.97629C1.61093 6.90878 1.60506 6.86475 1.60213 6.85008C1.60213 6.84421 1.59919 6.83834 1.59919 6.82953C1.54049 6.52723 1.51114 6.22199 1.51114 5.91382C1.51114 3.25763 3.67424 1.09453 6.33043 1.09453C8.98661 1.09453 11.1497 3.25763 11.1497 5.91382C11.1497 6.22492 11.1204 6.53309 11.0617 6.83247Z"
             />
        <path
            d="M6.33038 2.41528C4.36685 2.41528 2.76727 4.01486 2.76727 5.97839C2.76727 7.9419 4.36685 9.54148 6.33038 9.54148C8.2939 9.54148 9.89348 7.9419 9.89348 5.97839C9.89348 4.01486 8.2939 2.41528 6.33038 2.41528ZM6.33038 8.74903C4.80124 8.74903 3.55973 7.50459 3.55973 5.97839C3.55973 4.45218 4.80417 3.20773 6.33038 3.20773C7.85658 3.20773 9.10103 4.45218 9.10103 5.97839C9.10103 7.50459 7.85952 8.74903 6.33038 8.74903Z"
             />
    </g>
    <defs>
        <clipPath id="clip0_1_1319">
            <rect width="11.6667" height="14"  transform="translate(0.5 0.305008)" />
        </clipPath>
    </defs>
</svg>