<svg width="46" height="46" viewBox="0 0 46 46" fill="none" xmlns="http://www.w3.org/2000/svg">
<g opacity="0.9">
<g clip-path="url(#clip0_17_3693)">
<g clip-path="url(#clip1_17_3693)">
<path d="M23 46C35.7025 46 46 35.7025 46 23C46 10.2975 35.7025 0 23 0C10.2975 0 0 10.2975 0 23C0 35.7025 10.2975 46 23 46Z" fill="#4680C2"/>
<path fill-rule="evenodd" clip-rule="evenodd" d="M11.5 16.0996C11.6796 25.0696 16.4019 30.4746 24.1859 30.4746H24.6387V25.3356C27.4778 25.6231 29.5909 27.7434 30.4534 30.4746H34.5431C34.1397 28.9358 33.4175 27.4988 32.4232 26.2569C31.4289 25.015 30.1849 23.9959 28.7715 23.2655C30.554 22.1946 33.0841 19.6071 33.6806 16.0996H29.9575C29.1812 18.9531 26.8596 21.5406 24.6387 21.785V16.0996H20.8581V26.0544C18.5581 25.4794 15.5609 22.6905 15.4388 16.0996H11.5Z" fill="white"/>
</g>
</g>
</g>
<defs>
<clipPath id="clip0_17_3693">
<rect width="46" height="46" fill="white"/>
</clipPath>
<clipPath id="clip1_17_3693">
<rect width="46" height="46" fill="white"/>
</clipPath>
</defs>
</svg>
