<svg width="46" height="46" viewBox="0 0 46 46" fill="none" xmlns="http://www.w3.org/2000/svg">
<g opacity="0.9">
<g clip-path="url(#clip0_17_3675)">
<g clip-path="url(#clip1_17_3675)">
<path d="M23 46C35.7025 46 46 35.7025 46 23C46 10.2975 35.7025 0 23 0C10.2975 0 0 10.2975 0 23C0 35.7025 10.2975 46 23 46Z" fill="#25D366"/>
<path d="M32.8383 13.0437C30.3646 10.564 27.0702 9.2002 23.5691 9.2002C16.3425 9.2002 10.4621 15.0806 10.4621 22.3071C10.4621 24.6156 11.0644 26.8709 12.2098 28.8606L10.35 35.6502L17.299 33.8258C19.2119 34.8708 21.3669 35.42 23.5631 35.42H23.5691C30.7897 35.42 36.8 29.5396 36.8 22.3131C36.8 18.8119 35.3122 15.5234 32.8383 13.0437ZM23.5691 33.2118C21.6089 33.2118 19.6902 32.6864 18.0193 31.6945L17.6237 31.4583L13.5027 32.5388L14.6008 28.5181L14.3411 28.1048C13.2489 26.3691 12.6762 24.3677 12.6762 22.3071C12.6762 16.3027 17.5647 11.4142 23.575 11.4142C26.4856 11.4142 29.2192 12.5477 31.2738 14.6083C33.3285 16.6688 34.5919 19.4023 34.586 22.3131C34.586 28.3233 29.5735 33.2118 23.5691 33.2118ZM29.5439 25.0525C29.2192 24.8871 27.6075 24.096 27.3063 23.9898C27.0052 23.8775 26.7868 23.8244 26.5683 24.155C26.3498 24.4857 25.7241 25.2177 25.5292 25.4421C25.3402 25.6606 25.1454 25.6902 24.8208 25.5248C22.896 24.5625 21.6325 23.8067 20.3631 21.6281C20.0267 21.0496 20.6997 21.0909 21.3256 19.8392C21.4318 19.6208 21.3787 19.4319 21.296 19.2665C21.2133 19.1012 20.5581 17.4894 20.2864 16.8341C20.0208 16.1964 19.7492 16.285 19.5485 16.2732C19.3595 16.2614 19.141 16.2614 18.9227 16.2614C18.7042 16.2614 18.35 16.3441 18.0488 16.6688C17.7477 16.9994 16.9035 17.7906 16.9035 19.4023C16.9035 21.0141 18.0783 22.5727 18.2377 22.7912C18.4031 23.0097 20.5462 26.316 23.8348 27.7388C25.9129 28.6362 26.7277 28.7129 27.7668 28.5595C28.3985 28.465 29.7033 27.7683 29.975 27.0008C30.2465 26.2333 30.2465 25.5779 30.1639 25.4421C30.0871 25.2946 29.8687 25.2119 29.5439 25.0525Z" fill="white"/>
</g>
</g>
</g>
<defs>
<clipPath id="clip0_17_3675">
<rect width="46" height="46" fill="white"/>
</clipPath>
<clipPath id="clip1_17_3675">
<rect width="46" height="46" fill="white"/>
</clipPath>
</defs>
</svg>
