<svg width="46" height="46" viewBox="0 0 46 46" fill="none" xmlns="http://www.w3.org/2000/svg">
<g opacity="0.9">
<g clip-path="url(#clip0_17_3688)">
<g clip-path="url(#clip1_17_3688)">
<path d="M23 46C35.7025 46 46 35.7025 46 23C46 10.2975 35.7025 0 23 0C10.2975 0 0 10.2975 0 23C0 35.7025 10.2975 46 23 46Z" fill="#FF0000"/>
<path d="M36.248 16.6741C36.0973 16.1175 35.8021 15.6099 35.3919 15.2022C34.9816 14.7944 34.4705 14.5007 33.9099 14.3507C31.8465 13.7998 23.575 13.7998 23.575 13.7998C23.575 13.7998 15.3035 13.7998 13.24 14.3477C12.6792 14.4974 12.1679 14.7909 11.7575 15.1987C11.3471 15.6065 11.0521 16.1143 10.902 16.6711C10.35 18.7221 10.35 22.9998 10.35 22.9998C10.35 22.9998 10.35 27.2775 10.902 29.3255C11.2061 30.4565 12.1035 31.3472 13.24 31.649C15.3035 32.1998 23.575 32.1998 23.575 32.1998C23.575 32.1998 31.8465 32.1998 33.9099 31.649C35.0494 31.3472 35.9439 30.4565 36.248 29.3255C36.8 27.2775 36.8 22.9998 36.8 22.9998C36.8 22.9998 36.8 18.7221 36.248 16.6741ZM20.9477 26.9259V19.0737L27.7964 22.9705L20.9477 26.9259Z" fill="white"/>
</g>
</g>
</g>
<defs>
<clipPath id="clip0_17_3688">
<rect width="46" height="46" fill="white"/>
</clipPath>
<clipPath id="clip1_17_3688">
<rect width="46" height="46" fill="white"/>
</clipPath>
</defs>
</svg>
