<svg width="80" height="81" viewBox="0 0 80 81" fill="none" xmlns="http://www.w3.org/2000/svg">
<rect y="0.47998" width="80" height="80" rx="40" fill="#081E59" fill-opacity="0.05"/>
<g clip-path="url(#clip0_17_2017)">
<path d="M59.4452 43.72C58.8848 42.9369 57.9512 42.4107 57.0086 42.3467C56.2393 42.2945 55.5422 42.5546 55.0462 43.0796C54.9374 43.1947 54.82 43.3212 54.6958 43.4567C54.1471 42.9541 53.4282 42.6307 52.7033 42.5814C51.9337 42.5293 51.2369 42.7893 50.7409 43.3143C49.6614 44.4571 47.7501 46.6892 46.2491 48.4661C46.0533 48.3503 45.8437 48.2548 45.6222 48.1832C44.9046 47.8743 35.014 43.6502 30.6298 43.6502C23.5477 43.6502 20.2942 47.4567 20.1591 47.6188C19.952 47.8673 19.9856 48.2359 20.2335 48.4439C20.4815 48.6518 20.8514 48.6192 21.0601 48.3718C21.0676 48.363 21.8276 47.4731 23.3801 46.5961C24.8112 45.7878 27.2305 44.8244 30.6298 44.8244C34.8417 44.8244 45.0806 49.2284 45.1836 49.2729C45.2025 49.2811 45.2219 49.2882 45.2416 49.2944C45.7305 49.447 46.1308 49.7809 46.3687 50.2346C46.6066 50.6882 46.6536 51.2074 46.5009 51.6964C46.3573 52.1564 46.0362 52.5556 45.6169 52.793C45.1476 53.0587 44.5941 53.0911 44.0799 52.9503L37.674 51.186C37.3615 51.1001 37.0382 51.2835 36.9521 51.5961C36.866 51.9087 37.0496 52.2319 37.3622 52.318L43.7591 54.0798C45.0203 54.4688 46.4316 53.992 47.1939 52.9141C47.381 52.6495 47.5252 52.3554 47.6218 52.0461C47.7021 51.7889 47.7475 51.5264 47.7597 51.2642L49.4778 51.0833C49.6298 51.0673 49.7697 50.9926 49.8676 50.8751C49.9099 50.8243 54.1227 45.7668 55.8998 43.8857C56.6384 43.1038 57.9571 43.6581 58.4905 44.4032C59.3105 45.549 58.2914 46.8 57.9595 47.1561C56.3286 48.9061 53.3379 52.5111 52.8004 53.1609L40.6284 59.2469L28.9791 54.3419C28.9069 54.3115 28.8294 54.2959 28.7512 54.2959H20.6102C20.286 54.2959 20.0231 54.5588 20.0231 54.883C20.0231 55.2072 20.286 55.4701 20.6102 55.4701H28.6326L40.4216 60.4339C40.4945 60.4647 40.572 60.4799 40.6494 60.4799C40.7394 60.4799 40.8295 60.4591 40.9119 60.4179L53.4364 54.1556C53.5097 54.1189 53.5744 54.0674 53.6266 54.0042C53.661 53.9625 57.0843 49.8171 58.8184 47.9566C60.0951 46.5869 60.3353 44.9634 59.4452 43.72ZM49.1181 49.9406L47.5884 50.1016C47.48 49.7946 47.3237 49.5061 47.1265 49.2471C48.4051 47.7335 50.4829 45.2975 51.5946 44.1207C51.9158 43.7807 52.332 43.7333 52.6237 43.7529C53.0841 43.7843 53.5559 44.0014 53.9108 44.3297C52.1494 46.3182 49.7512 49.1823 49.1181 49.9406Z" fill="#081E59"/>
<path d="M53.1739 32.3782H48.1249V25.7246C48.1249 25.4004 47.8621 25.1375 47.5378 25.1375C47.2135 25.1375 46.9507 25.4004 46.9507 25.7246V32.9653C46.9507 33.2895 47.2135 33.5524 47.5378 33.5524H51.5868L40.0231 43.4641L28.4595 33.5524H32.5085C32.8327 33.5524 33.0956 33.2895 33.0956 32.9653V21.6541H46.9508V23.024C46.9508 23.3482 47.2136 23.6111 47.5379 23.6111C47.8622 23.6111 48.125 23.3482 48.125 23.024V21.0671C48.125 20.7429 47.8622 20.48 47.5379 20.48H32.5085C32.1843 20.48 31.9214 20.7429 31.9214 21.0671V32.3783H26.8725C26.3401 32.3783 26.0852 33.0638 26.4904 33.4111L39.6411 44.6831C39.8583 44.8693 40.1881 44.8693 40.4053 44.6831L53.556 33.4111C53.9612 33.0637 53.7064 32.3782 53.1739 32.3782Z" fill="#081E59"/>
<path d="M44.1956 24.4093C43.9662 24.18 43.5946 24.18 43.3653 24.4093L35.8506 31.924C35.489 32.2855 35.7524 32.9262 36.2658 32.9262C36.416 32.9262 36.5663 32.8689 36.6808 32.7542L44.1955 25.2395C44.4249 25.0102 44.4249 24.6385 44.1956 24.4093Z" fill="#081E59"/>
<path d="M43.1543 29.2471C42.14 29.2471 41.3148 30.0723 41.3148 31.0866C41.3148 32.1009 42.14 32.9261 43.1543 32.9261C44.1686 32.9261 44.9938 32.1009 44.9938 31.0866C44.9938 30.0723 44.1686 29.2471 43.1543 29.2471ZM43.1543 31.752C42.7874 31.752 42.4889 31.4536 42.4889 31.0866C42.4889 30.7197 42.7874 30.4212 43.1543 30.4212C43.5212 30.4212 43.8197 30.7197 43.8197 31.0866C43.8197 31.4536 43.5212 31.752 43.1543 31.752Z" fill="#081E59"/>
<path d="M36.892 24.2373C35.8777 24.2373 35.0525 25.0625 35.0525 26.0768C35.0525 27.0911 35.8777 27.9164 36.892 27.9164C37.9063 27.9164 38.7316 27.0911 38.7316 26.0768C38.7316 25.0625 37.9064 24.2373 36.892 24.2373ZM36.892 26.7422C36.5252 26.7422 36.2266 26.4438 36.2266 26.0768C36.2266 25.7099 36.5251 25.4114 36.892 25.4114C37.259 25.4114 37.5574 25.7099 37.5574 26.0768C37.5574 26.4438 37.2589 26.7422 36.892 26.7422Z" fill="#081E59"/>
</g>
<defs>
<clipPath id="clip0_17_2017">
<rect width="40" height="40" fill="white" transform="translate(20 20.48)"/>
</clipPath>
</defs>
</svg>
