<svg width="81" height="80" viewBox="0 0 81 80" fill="none" xmlns="http://www.w3.org/2000/svg">
<rect x="0.5" width="80" height="80" rx="40" fill="#081E59" fill-opacity="0.05"/>
<g clip-path="url(#clip0_17_2046)">
<path d="M54.4584 40.0481V36.1437L56.1977 37.3006C56.5251 37.5185 56.9003 37.6274 57.2757 37.6274C57.6509 37.6274 58.0263 37.5185 58.3538 37.3006C58.8975 36.9388 59.2221 36.3331 59.2221 35.68C59.2221 35.027 58.8975 34.4212 58.3538 34.0595L53.752 30.9983C53.4904 30.8243 53.1374 30.8953 52.9635 31.1568C52.7895 31.4183 52.8605 31.7713 53.122 31.9453L57.7237 35.0064C57.9531 35.159 58.0847 35.4045 58.0847 35.68C58.0847 35.9555 57.9531 36.201 57.7237 36.3536C57.4516 36.5347 57.0998 36.5347 56.8277 36.3536L40.4131 25.4346C40.3473 25.3909 40.2777 25.356 40.2059 25.3294C39.9113 25.2203 39.5785 25.2552 39.3088 25.4346L22.8945 36.3537C22.6223 36.5347 22.2706 36.5348 21.9983 36.3537C21.7689 36.2011 21.6373 35.9556 21.6373 35.6801C21.6373 35.4046 21.7689 35.1591 21.9983 35.0065L39.8611 23.124L50.1811 29.989C50.4427 30.1629 50.7956 30.0919 50.9695 29.8305C51.1435 29.569 51.0725 29.216 50.8111 29.042L40.4131 22.1252C40.0777 21.9021 39.6443 21.9022 39.3089 22.1252L33.9475 25.6917V24.7679H34.1103C34.5176 24.7679 34.8489 24.4366 34.8489 24.0293V22.3074C34.8489 21.9002 34.5176 21.5688 34.1103 21.5688H28.1061C27.6988 21.5688 27.3675 21.9002 27.3675 22.3074V24.0294C27.3675 24.4367 27.6988 24.768 28.1061 24.768H28.2688V29.4692L21.3683 34.0596C20.8246 34.4211 20.5 35.027 20.5 35.68C20.5 36.3331 20.8246 36.9389 21.3684 37.3006C22.0234 37.7363 22.8695 37.7363 23.5245 37.3006L25.2638 36.1437V46.2118C25.2638 46.5259 25.5183 46.7805 25.8324 46.7805C26.1466 46.7805 26.4011 46.5259 26.4011 46.2118V35.3871L39.861 26.4334L53.3211 35.3871V39.6804C53.2712 39.6678 53.2211 39.6567 53.1711 39.6449C53.15 39.6399 53.1291 39.6348 53.108 39.6299C53.0516 39.6171 52.9951 39.6048 52.9384 39.5929C52.9073 39.5863 52.8761 39.58 52.8448 39.5738C52.7923 39.5634 52.7397 39.5531 52.687 39.5435C52.6497 39.5367 52.6123 39.5306 52.5748 39.5243C52.5262 39.5161 52.4775 39.5075 52.4287 39.5C52.3478 39.4876 52.2666 39.4763 52.1851 39.466C52.1469 39.4611 52.1085 39.4572 52.0703 39.4528C52.018 39.4468 51.9657 39.441 51.9132 39.4358C51.8742 39.432 51.8352 39.4287 51.796 39.4253C51.7429 39.4208 51.6897 39.4167 51.6364 39.413C51.599 39.4104 51.5616 39.408 51.5241 39.4059C51.4656 39.4026 51.407 39.4 51.3483 39.3978C51.3161 39.3965 51.284 39.395 51.2518 39.3941C51.1659 39.3917 51.0798 39.3903 50.9934 39.3901C50.9888 39.3901 50.9841 39.3899 50.9795 39.3899C46.3859 39.3899 42.5418 42.6599 41.6525 46.9942C41.5255 47.6135 41.4587 48.2544 41.4587 48.9106C41.4587 48.9906 41.4598 49.0706 41.4618 49.1504C41.4841 50.0447 41.6302 50.9088 41.8838 51.7261C41.8954 51.7634 41.9077 51.8006 41.9198 51.8378C42.0049 52.102 42.1009 52.3628 42.2088 52.6186H39.4075V39.379C39.4075 38.7186 38.8702 38.1814 38.2099 38.1814H29.8711C29.2108 38.1814 28.6735 38.7187 28.6735 39.379V52.6185H26.401V49.745C26.401 49.431 26.1465 49.1763 25.8323 49.1763C25.5183 49.1763 25.2637 49.431 25.2637 49.745V52.6185H22.923C22.053 52.6185 21.345 53.3264 21.345 54.1966C21.345 55.0667 22.053 55.7746 22.923 55.7746H44.3887C46.1005 57.4189 48.4238 58.4312 50.9793 58.4312C56.2291 58.4313 60.5 54.1603 60.5 48.9106C60.5 44.8881 57.9924 41.4403 54.4584 40.0481ZM32.8102 26.4483L29.4062 28.7126V24.7679H32.8102V26.4483ZM28.5048 22.7061H33.7116V23.6306H28.5048V22.7061ZM29.8108 39.379C29.8108 39.3457 29.8378 39.3188 29.871 39.3188H38.2098C38.243 39.3188 38.27 39.3458 38.27 39.379V52.6185H29.8108V39.379ZM22.923 54.6374C22.68 54.6374 22.4823 54.4396 22.4823 54.1967C22.4823 53.9536 22.6801 53.756 22.923 53.756H42.7823C42.9627 54.0605 43.16 54.3547 43.3731 54.6374H22.923ZM50.9793 57.2939C47.3116 57.2939 44.1867 54.9262 43.0522 51.639C43.0418 51.6087 43.0314 51.5784 43.0214 51.5479C43.0095 51.512 42.9977 51.4761 42.9863 51.4401C42.967 51.3788 42.9482 51.3174 42.9303 51.2558C42.9274 51.246 42.9244 51.2362 42.9215 51.2263C42.7793 50.7299 42.6828 50.2198 42.6338 49.7038C42.633 49.6953 42.6323 49.6869 42.6315 49.6784C42.6249 49.607 42.6195 49.5356 42.6147 49.4642C42.6134 49.4453 42.6122 49.4266 42.6111 49.4078C42.6073 49.3442 42.6045 49.2806 42.6021 49.217C42.6014 49.1964 42.6004 49.1759 42.5998 49.1553C42.5973 49.0738 42.5959 48.9922 42.5959 48.9106C42.5959 48.3328 42.6547 47.7684 42.7666 47.2231C43.5496 43.4065 46.9345 40.5272 50.9793 40.5272C50.9809 40.5272 50.9825 40.5273 50.9841 40.5273C51.0856 40.5274 51.1869 40.5299 51.288 40.5335C51.3116 40.5344 51.3352 40.5352 51.3588 40.5363C51.4566 40.5406 51.5543 40.5466 51.6516 40.5543C51.6754 40.5562 51.6991 40.5585 51.7228 40.5606C51.8059 40.568 51.8888 40.5765 51.9716 40.5863C51.9943 40.5889 52.017 40.5912 52.0396 40.5941C52.1301 40.6055 52.2201 40.619 52.31 40.6333C52.3455 40.639 52.3809 40.6448 52.4162 40.651C52.5007 40.6656 52.585 40.6812 52.669 40.6984C52.7084 40.7065 52.7476 40.7154 52.7868 40.7241C52.841 40.736 52.8952 40.7485 52.9491 40.7616C53.0145 40.7774 53.0797 40.7939 53.1445 40.8113C53.1945 40.8246 53.2445 40.8382 53.2943 40.8525C53.3487 40.8681 53.4029 40.8842 53.4568 40.901C53.4807 40.9084 53.5045 40.9163 53.5284 40.9239C56.9084 42.0052 59.3627 45.1764 59.3627 48.9106C59.3627 53.5331 55.6019 57.2939 50.9793 57.2939Z" fill="#081E59"/>
<path d="M55.133 47.6175H54.4584V46.3762C54.4584 44.5451 52.9687 43.0554 51.1376 43.0554C49.3065 43.0554 47.8169 44.5451 47.8169 46.3762V47.6175H47.3311C46.9251 47.6175 46.5949 47.9477 46.5949 48.3536V53.2941C46.5949 53.7 46.9251 54.0303 47.3311 54.0303H55.1331C55.539 54.0303 55.8693 53.7 55.8693 53.2941V48.3536C55.8692 47.9478 55.539 47.6175 55.133 47.6175ZM48.9541 46.3763C48.9542 45.1724 49.9337 44.1928 51.1376 44.1928C52.3415 44.1928 53.321 45.1723 53.321 46.3763V47.6175H48.9541V46.3763ZM54.7319 52.8931H47.7322V48.7549H54.7319V52.8931Z" fill="#081E59"/>
<path d="M51.1376 49.4463C50.8235 49.4463 50.5689 49.7009 50.5689 50.015V51.4177C50.5689 51.7318 50.8234 51.9864 51.1376 51.9864C51.4517 51.9864 51.7063 51.7318 51.7063 51.4177V50.015C51.7063 49.7009 51.4517 49.4463 51.1376 49.4463Z" fill="#081E59"/>
<path d="M36.5405 44.5173C36.2275 44.5173 35.9739 44.7709 35.9739 45.0839V46.2548C35.9739 46.5678 36.2275 46.8214 36.5405 46.8214C36.8535 46.8214 37.1071 46.5678 37.1071 46.2548V45.0839C37.1071 44.7709 36.8535 44.5173 36.5405 44.5173Z" fill="#081E59"/>
</g>
<defs>
<clipPath id="clip0_17_2046">
<rect width="40" height="40" fill="white" transform="translate(20.5 20)"/>
</clipPath>
</defs>
</svg>
