<svg width="81" height="81" viewBox="0 0 81 81" fill="none" xmlns="http://www.w3.org/2000/svg">
<rect x="0.5" y="0.47998" width="80" height="80" rx="40" fill="#081E59" fill-opacity="0.05"/>
<g clip-path="url(#clip0_17_2027)">
<path d="M57.408 22.6719H23.592C21.8871 22.6719 20.5 24.059 20.5 25.7639V45.803C20.5 47.5079 21.8871 48.895 23.592 48.895H36.1164C36.4407 48.895 36.7035 48.6321 36.7035 48.3079C36.7035 47.9837 36.4407 47.7208 36.1164 47.7208H23.592C22.5345 47.7208 21.6742 46.8605 21.6742 45.803V25.7639C21.6742 24.7064 22.5345 23.846 23.592 23.846H57.408C58.4655 23.846 59.3258 24.7064 59.3258 25.7639V45.803C59.3258 46.1272 59.5887 46.3901 59.9129 46.3901C60.2371 46.3901 60.5 46.1272 60.5 45.803V25.7639C60.5 24.059 59.1129 22.6719 57.408 22.6719Z" fill="#081E59"/>
<path d="M36.7427 43.3372H25.4707C25.1464 43.3372 24.8836 43.6 24.8836 43.9243C24.8836 44.2485 25.1464 44.5113 25.4707 44.5113H36.7427C37.0669 44.5113 37.3298 44.2485 37.3298 43.9243C37.3298 43.6 37.0669 43.3372 36.7427 43.3372Z" fill="#081E59"/>
<path d="M32.32 32.6523V30.1474C32.32 29.1331 31.4948 28.3079 30.4804 28.3079H26.7231C25.7088 28.3079 24.8836 29.1331 24.8836 30.1474V32.6523C24.8836 33.6666 25.7088 34.4918 26.7231 34.4918H30.4804C31.4948 34.4918 32.32 33.6666 32.32 32.6523ZM26.0577 32.6523V31.9869H26.7231C27.0473 31.9869 27.3102 31.7241 27.3102 31.3999C27.3102 31.0756 27.0473 30.8128 26.7231 30.8128H26.0577V30.1474C26.0577 29.7805 26.3562 29.482 26.7231 29.482H28.0147V33.3177H26.7231C26.3562 33.3177 26.0577 33.0192 26.0577 32.6523ZM30.4804 33.3177H29.1889V29.482H30.4804C30.8473 29.482 31.1458 29.7805 31.1458 30.1474V30.8128H30.4804C30.1562 30.8128 29.8934 31.0756 29.8934 31.3999C29.8934 31.7241 30.1562 31.9869 30.4804 31.9869H31.1458V32.6523C31.1458 33.0192 30.8473 33.3177 30.4804 33.3177Z" fill="#081E59"/>
<path d="M24.8836 40.1669C24.8836 40.4912 25.1464 40.754 25.4707 40.754C25.7949 40.754 26.0577 40.4912 26.0577 40.1669V38.9145C26.0577 38.5903 25.7949 38.3274 25.4707 38.3274C25.1464 38.3274 24.8836 38.5903 24.8836 38.9145V40.1669Z" fill="#081E59"/>
<path d="M26.7622 38.9145V40.1669C26.7622 40.4912 27.0251 40.754 27.3493 40.754C27.6735 40.754 27.9364 40.4912 27.9364 40.1669V38.9145C27.9364 38.5903 27.6735 38.3274 27.3493 38.3274C27.0251 38.3274 26.7622 38.5903 26.7622 38.9145Z" fill="#081E59"/>
<path d="M28.6409 38.9145V40.1669C28.6409 40.4912 28.9038 40.754 29.228 40.754C29.5522 40.754 29.8151 40.4912 29.8151 40.1669V38.9145C29.8151 38.5903 29.5522 38.3274 29.228 38.3274C28.9038 38.3274 28.6409 38.5903 28.6409 38.9145Z" fill="#081E59"/>
<path d="M30.5196 38.9145V40.1669C30.5196 40.4912 30.7824 40.754 31.1066 40.754C31.4309 40.754 31.6937 40.4912 31.6937 40.1669V38.9145C31.6937 38.5903 31.4309 38.3274 31.1066 38.3274C30.7824 38.3274 30.5196 38.5903 30.5196 38.9145Z" fill="#081E59"/>
<path d="M34.1986 40.1669V38.9145C34.1986 38.5903 33.9358 38.3274 33.6116 38.3274C33.2873 38.3274 33.0245 38.5903 33.0245 38.9145V40.1669C33.0245 40.4912 33.2873 40.754 33.6116 40.754C33.9358 40.754 34.1986 40.4912 34.1986 40.1669Z" fill="#081E59"/>
<path d="M36.0773 40.1669V38.9145C36.0773 38.5903 35.8144 38.3274 35.4902 38.3274C35.166 38.3274 34.9031 38.5903 34.9031 38.9145V40.1669C34.9031 40.4912 35.166 40.754 35.4902 40.754C35.8144 40.754 36.0773 40.4912 36.0773 40.1669Z" fill="#081E59"/>
<path d="M37.3689 38.3274C37.0447 38.3274 36.7818 38.5903 36.7818 38.9145V40.1669C36.7818 40.4912 37.0447 40.754 37.3689 40.754C37.6931 40.754 37.956 40.4912 37.956 40.1669V38.9145C37.956 38.5903 37.6931 38.3274 37.3689 38.3274Z" fill="#081E59"/>
<path d="M39.8346 40.1669V38.9145C39.8346 38.5903 39.5718 38.3274 39.2475 38.3274C38.9233 38.3274 38.6605 38.5903 38.6605 38.9145V40.1669C38.6605 40.4912 38.9233 40.754 39.2475 40.754C39.5718 40.754 39.8346 40.4912 39.8346 40.1669Z" fill="#081E59"/>
<path d="M53.0245 34.4918C54.7293 34.4918 56.1164 33.1047 56.1164 31.3999C56.1164 29.6949 54.7293 28.3079 53.0245 28.3079H49.2671C47.5622 28.3079 46.1751 29.6949 46.1751 31.3999C46.1751 33.1047 47.5622 34.4918 49.2671 34.4918H53.0245ZM47.3493 31.3999C47.3493 30.3424 48.2097 29.482 49.2671 29.482H53.0245C54.0819 29.482 54.9423 30.3424 54.9423 31.3999C54.9423 32.4573 54.0819 33.3177 53.0245 33.3177H49.2671C48.2097 33.3177 47.3493 32.4573 47.3493 31.3999Z" fill="#081E59"/>
<path d="M48.0147 38.3274C42.5114 38.3274 38.0342 42.8046 38.0342 48.3078C38.0342 53.8111 42.5114 58.2883 48.0147 58.2883C53.5179 58.2883 57.9951 53.8111 57.9951 48.3078C57.9951 42.8046 53.5179 38.3274 48.0147 38.3274ZM48.0147 57.1141C43.1589 57.1141 39.2084 53.1637 39.2084 48.3078C39.2084 43.452 43.1589 39.5016 48.0147 39.5016C52.8705 39.5016 56.8209 43.452 56.8209 48.3078C56.8209 53.1637 52.8705 57.1141 48.0147 57.1141Z" fill="#081E59"/>
<path d="M53.2356 44.7618L46.136 51.8614L42.7938 48.5192C42.5645 48.2899 42.1928 48.2899 41.9636 48.5192C41.7343 48.7484 41.7343 49.1202 41.9636 49.3494L45.7209 53.1067C45.8355 53.2213 45.9858 53.2787 46.136 53.2787C46.2862 53.2787 46.4365 53.2214 46.5511 53.1067L54.0658 45.592C54.2951 45.3628 54.2951 44.991 54.0658 44.7618C53.8366 44.5325 53.4648 44.5325 53.2356 44.7618Z" fill="#081E59"/>
</g>
<defs>
<clipPath id="clip0_17_2027">
<rect width="40" height="40" fill="white" transform="translate(20.5 20.48)"/>
</clipPath>
</defs>
</svg>
