<svg width="81" height="81" viewBox="0 0 81 81" fill="none" xmlns="http://www.w3.org/2000/svg">
<rect x="0.5" y="0.47998" width="80" height="80" rx="40" fill="#081E59" fill-opacity="0.05"/>
<g clip-path="url(#clip0_17_1998)">
<mask id="mask0_17_1998" style="mask-type:luminance" maskUnits="userSpaceOnUse" x="20" y="20" width="41" height="41">
<path d="M60.5 20.48H20.5V60.48H60.5V20.48Z" fill="white"/>
</mask>
<g mask="url(#mask0_17_1998)">
<path d="M39.2806 39.4383C39.0751 39.1883 38.7058 39.1522 38.4559 39.3577C38.0414 39.6984 37.445 39.8938 36.8196 39.8938C36.1943 39.8938 35.5979 39.6985 35.1833 39.3577C34.9332 39.1522 34.564 39.1884 34.3586 39.4383C34.1531 39.6883 34.1892 40.0575 34.4392 40.263C35.069 40.7806 35.9143 41.0657 36.8196 41.0657C37.7248 41.0657 38.5702 40.7806 39.2 40.263C39.45 40.0575 39.4861 39.6883 39.2806 39.4383Z" fill="#081E59"/>
<path d="M33.4724 35.2078C33.1488 35.2078 32.8864 35.4701 32.8864 35.7937V36.4632C32.8864 36.7868 33.1488 37.0491 33.4724 37.0491C33.796 37.0491 34.0583 36.7868 34.0583 36.4632V35.7937C34.0583 35.4701 33.796 35.2078 33.4724 35.2078Z" fill="#081E59"/>
<path d="M40.1669 35.2078C39.8433 35.2078 39.5809 35.4701 39.5809 35.7937V36.4632C39.5809 36.7868 39.8433 37.0491 40.1669 37.0491C40.4905 37.0491 40.7528 36.7868 40.7528 36.4632V35.7937C40.7528 35.4701 40.4905 35.2078 40.1669 35.2078Z" fill="#081E59"/>
<path d="M41.407 24.3722C41.417 24.2745 41.4223 24.1765 41.4223 24.0786C41.4222 22.0943 39.3575 20.48 36.8196 20.48C34.2817 20.48 32.2169 22.0943 32.2169 24.0785C32.2169 24.1764 32.2219 24.2746 32.232 24.3722C29.4265 25.9724 27.5308 28.9922 27.5308 32.4466V35.7939C27.5308 36.6567 28.1015 37.3888 28.8852 37.6325C29.0224 39.8399 30.0654 41.8813 31.7942 43.2931C32.1394 43.575 32.5051 43.8242 32.8864 44.0411V45.2639C32.8864 45.8061 32.5851 46.2936 32.1001 46.5361L26.2871 49.4426C25.4025 49.8849 24.853 50.774 24.853 51.763V54.5385C24.853 55.0191 25.1248 55.437 25.5225 55.6478V59.894C25.5225 60.2176 25.7848 60.4799 26.1084 60.4799C26.432 60.4799 26.6943 60.2176 26.6943 59.894V55.7938H28.8697V59.894C28.8697 60.2176 29.1321 60.4799 29.4557 60.4799C29.7793 60.4799 30.0416 60.2176 30.0416 59.894V53.8689C30.0416 53.5453 29.7793 53.283 29.4557 53.283C29.1321 53.283 28.8697 53.5453 28.8697 53.8689V54.6219H26.1084C26.0624 54.6219 26.0249 54.5845 26.0249 54.5384V51.7629C26.0249 51.2206 26.3261 50.7331 26.8111 50.4906L31.0747 48.3589C31.9491 49.9226 33.6638 51.5459 33.7402 51.6178C33.8533 51.7243 33.9976 51.7771 34.1417 51.7771C34.2976 51.7771 34.4532 51.7153 34.5685 51.5928C34.7903 51.3571 34.779 50.9863 34.5434 50.7645C34.5262 50.7484 32.9166 49.2253 32.1237 47.8344L32.6242 47.5842C33.5088 47.1419 34.0582 46.2528 34.0582 45.2638V44.5853C34.9408 44.911 35.8792 45.0802 36.8343 45.0802C37.3823 45.0802 37.936 45.0249 38.487 44.9125C40.2507 44.5529 41.8554 43.5643 43.0054 42.1286C44.1481 40.7022 44.7746 38.9213 44.7694 37.1138C44.7596 33.6465 42.1277 33.0327 39.0801 32.3221C37.5966 31.9761 35.9151 31.5841 34.2395 30.8243C33.681 30.5711 33.0262 30.7476 32.6824 31.2442C31.5443 32.8878 30.338 33.8691 29.4557 33.8691C29.1886 33.8691 28.9341 33.9239 28.7027 34.0226V32.4467C28.7027 27.971 32.344 24.3298 36.8196 24.3298C41.2953 24.3298 44.9365 27.9711 44.9365 32.4467V33.7856C44.9365 34.1092 45.1988 34.3715 45.5224 34.3715C45.846 34.3715 46.1084 34.1092 46.1084 33.7856V32.4467C46.1084 28.9922 44.2126 25.9723 41.407 24.3722ZM29.4557 35.0408C31.2158 35.0408 32.8364 33.08 33.6458 31.9112C33.6609 31.8894 33.684 31.8808 33.7079 31.8808C33.7242 31.8808 33.7407 31.8847 33.7555 31.8915C35.5364 32.699 37.2777 33.1051 38.814 33.4633C42.0398 34.2155 43.5907 34.6851 43.5975 37.1171C43.6019 38.658 43.0668 40.1776 42.0908 41.396C41.1117 42.6182 39.7487 43.4593 38.2528 43.7643C36.2039 44.1818 34.12 43.6794 32.5354 42.3853C30.9506 41.0911 30.0416 39.1765 30.0416 37.1327C30.0416 36.8091 29.7793 36.5468 29.4557 36.5468C29.0405 36.5468 28.7027 36.209 28.7027 35.7938C28.7027 35.3786 29.0405 35.0408 29.4557 35.0408ZM36.8196 23.1578C35.6169 23.1578 34.4669 23.3876 33.4111 23.8055C33.6036 22.5955 35.0584 21.6519 36.8196 21.6519C38.5808 21.6519 40.0357 22.5956 40.2281 23.8055C39.1723 23.3876 38.0223 23.1578 36.8196 23.1578Z" fill="#081E59"/>
<path d="M54.2137 41.8304C51.6361 39.2528 47.4421 39.2528 44.8644 41.8304L37.5005 49.1944C34.9229 51.772 34.9229 55.9661 37.5005 58.5438C38.7893 59.8326 40.4822 60.477 42.1751 60.477C43.8288 60.477 45.4815 59.8602 46.7586 58.6304L47.6976 60.1956C47.864 60.473 48.224 60.563 48.5015 60.3965C48.779 60.23 48.869 59.8701 48.7025 59.5926L46.8892 56.5703C46.6636 56.1944 46.2512 55.9609 45.8127 55.9609H44.8529C44.2648 55.9609 43.7005 55.7111 43.3045 55.2756C42.9033 54.8343 42.7137 54.261 42.7709 53.6616C42.8717 52.6049 43.8368 51.7771 44.968 51.7771H46.2008C47.2181 51.7771 48.1497 52.3336 48.632 53.2293L52.3703 60.1718C52.4761 60.3684 52.678 60.4801 52.8867 60.4801C52.9805 60.4801 53.0756 60.4575 53.164 60.4099C53.4489 60.2565 53.5555 59.9012 53.4021 59.6163L50.7333 54.66L54.2136 51.1798C56.7914 48.6021 56.7914 44.408 54.2137 41.8304ZM41.6044 53.5502C41.5168 54.469 41.8205 55.3852 42.4375 56.0639C43.055 56.7431 43.9355 57.1327 44.853 57.1327H45.8128C45.842 57.1327 45.8694 57.1483 45.8844 57.1733L46.1389 57.5974L46.0212 57.7151C43.9005 59.8358 40.4498 59.8357 38.3291 57.7151C36.2084 55.5944 36.2084 52.1438 38.3291 50.0231L40.0686 48.2836C40.6623 48.8728 41.8276 49.9824 43.23 51.0764C42.3381 51.5966 41.7046 52.5009 41.6044 53.5502ZM50.1534 53.5828L49.664 52.6738C48.977 51.3978 47.65 50.6053 46.2009 50.6053H44.9681C44.8368 50.6053 44.7071 50.6136 44.5791 50.6281C42.9684 49.4455 41.5596 48.1092 40.8979 47.4542L45.693 42.659C47.8138 40.5383 51.2644 40.5383 53.385 42.659C54.4123 43.6863 54.9782 45.0522 54.9782 46.505C54.9782 47.9578 54.4124 49.3238 53.385 50.351L50.1534 53.5828Z" fill="#081E59"/>
<path d="M52.3204 43.7239C50.7868 42.1904 48.2915 42.1904 46.758 43.7239C45.2245 45.2575 45.2245 47.7528 46.758 49.2863C47.5247 50.0531 48.532 50.4364 49.5392 50.4364C50.5464 50.4364 51.5536 50.0531 52.3204 49.2863C53.8539 47.7528 53.8539 45.2575 52.3204 43.7239ZM51.4918 48.4577C50.4151 49.5343 48.6633 49.5343 47.5867 48.4577C46.51 47.381 46.51 45.6293 47.5867 44.5526C48.125 44.0143 48.8321 43.7452 49.5393 43.7452C50.2465 43.7452 50.9535 44.0143 51.4918 44.5526C52.5683 45.6293 52.5683 47.381 51.4918 48.4577Z" fill="#081E59"/>
<path d="M48.5874 46.1441C48.911 46.1441 49.1734 45.8817 49.1734 45.5581C49.1734 45.2345 48.911 44.9722 48.5874 44.9722C48.2638 44.9722 48.0015 45.2345 48.0015 45.5581C48.0015 45.8817 48.2638 46.1441 48.5874 46.1441Z" fill="#081E59"/>
<path d="M50.482 48.0322C50.8056 48.0322 51.0679 47.7699 51.0679 47.4463C51.0679 47.1227 50.8056 46.8604 50.482 46.8604C50.1584 46.8604 49.896 47.1227 49.896 47.4463C49.896 47.7699 50.1584 48.0322 50.482 48.0322Z" fill="#081E59"/>
</g>
</g>
<defs>
<clipPath id="clip0_17_1998">
<rect width="40" height="40" fill="white" transform="translate(20.5 20.48)"/>
</clipPath>
</defs>
</svg>
